<svg width="1005" height="1005" viewBox="0 0 1005 1005" fill="none" xmlns="http://www.w3.org/2000/svg">
<rect width="1005" height="1005" rx="502.5" transform="matrix(-1 0 0 1 1005 0)" fill="#712CF9"/>
<g clip-path="url(#clip0_401_36)">
<path d="M635.531 185.24C669.579 186.846 692.83 192.28 713.157 200.267C734.194 208.466 752.024 219.467 769.765 237.272C787.506 255.077 798.43 272.92 806.571 293.989C814.45 314.36 819.787 337.63 821.291 371.698C822.795 405.765 823.128 416.715 822.962 503.614C822.795 590.514 822.411 601.406 820.76 635.544C819.134 669.586 813.72 692.83 805.733 713.163C797.522 734.2 786.533 752.024 768.722 769.771C750.91 787.518 733.08 798.418 711.96 806.571C691.608 814.437 668.331 819.8 634.27 821.291C600.21 822.782 589.246 823.128 502.373 822.962C415.499 822.795 404.562 822.411 370.43 820.792C336.299 819.173 313.176 813.72 292.837 805.771C271.8 797.541 253.963 786.571 236.229 768.754C218.494 750.936 207.576 733.08 199.442 711.998C191.557 691.646 186.2 668.37 184.722 634.334C183.23 600.178 182.878 589.272 183.045 502.386C183.211 415.499 183.602 404.606 185.221 370.482C186.84 336.357 192.261 313.182 200.242 292.837C208.466 271.8 219.442 253.989 237.246 236.229C255.051 218.469 272.92 207.557 293.995 199.442C314.36 191.563 337.624 186.194 371.685 184.722C405.746 183.25 416.709 182.872 503.614 183.038C590.52 183.205 601.4 183.576 635.531 185.24ZM631.794 763.723C662.994 762.366 679.934 757.182 691.224 752.843C706.174 747.083 716.824 740.12 728.075 728.978C739.326 717.835 746.238 707.147 752.075 692.229C756.459 680.939 761.739 664.018 763.198 632.818C764.786 599.096 765.118 588.971 765.304 503.538C765.49 418.104 765.163 407.992 763.685 374.258C762.354 343.083 757.138 326.123 752.805 314.84C747.045 299.87 740.107 289.24 728.939 277.995C717.771 266.75 707.115 259.826 692.184 253.989C680.907 249.586 663.986 244.35 632.798 242.866C599.051 241.266 588.939 240.946 503.518 240.76C418.098 240.574 407.96 240.894 374.2 242.379C343.026 243.736 326.059 248.901 314.789 253.259C299.832 259.019 289.189 265.938 277.944 277.125C266.699 288.312 259.768 298.93 253.931 313.893C249.522 325.138 244.286 342.053 242.814 373.259C241.208 407.006 240.843 417.125 240.69 502.539C240.536 587.954 240.837 598.098 242.315 631.819C243.678 663.019 248.85 679.966 253.195 691.269C258.955 706.213 265.899 716.869 277.074 728.107C288.248 739.346 298.891 746.27 313.829 752.107C325.093 756.504 342.034 761.752 373.195 763.237C406.942 764.824 417.054 765.157 502.507 765.342C587.96 765.528 598.04 765.182 631.787 763.723H631.794ZM370.923 331.973C370.911 339.568 368.646 346.989 364.415 353.297C360.185 359.605 354.178 364.517 347.156 367.411C340.134 370.306 332.411 371.053 324.964 369.557C317.518 368.062 310.681 364.392 305.321 359.012C299.96 353.631 296.315 346.782 294.847 339.33C293.379 331.877 294.154 324.157 297.074 317.146C299.995 310.134 304.928 304.146 311.252 299.939C317.575 295.731 325.005 293.494 332.6 293.509C342.782 293.529 352.539 297.593 359.726 304.806C366.913 312.019 370.94 321.791 370.923 331.973V331.973ZM667.307 503.32C667.128 594.072 593.426 667.474 502.693 667.301C411.96 667.128 338.507 593.432 338.68 502.68C338.853 411.928 412.574 338.507 503.32 338.686C594.066 338.866 667.48 412.581 667.307 503.32ZM609.669 503.205C609.711 482.108 603.495 461.472 591.809 443.907C580.123 426.343 563.491 412.638 544.016 404.526C524.54 396.414 503.097 394.259 482.397 398.334C461.697 402.409 442.671 412.53 427.723 427.418C412.776 442.307 402.579 461.293 398.422 481.977C394.266 502.66 396.336 524.112 404.37 543.619C412.405 563.126 426.044 579.812 443.563 591.568C461.081 603.324 481.692 609.621 502.789 609.662C516.797 609.692 530.674 606.961 543.627 601.627C556.58 596.293 568.356 588.459 578.281 578.573C588.206 568.687 596.086 556.943 601.472 544.011C606.857 531.079 609.643 517.213 609.669 503.205" fill="white"/>
</g>
<defs>
<clipPath id="clip0_401_36">
<rect width="640" height="640" fill="white" transform="matrix(-1 0 0 1 823 183)"/>
</clipPath>
</defs>
</svg>
